<svg width="22" height="18" viewBox="0 0 22 18" fill="none" xmlns="http://www.w3.org/2000/svg">
<ellipse cx="3.125" cy="15.4439" rx="2.625" ry="2.55621" fill="#16FFE5"/>
<ellipse cx="18.875" cy="15.4439" rx="2.625" ry="2.55621" fill="#16FFE5"/>
<path d="M15.2022 16.4556H6.80109C6.73889 16.4556 6.69196 16.3991 6.7017 16.3377C6.83614 15.49 6.73157 14.8393 6.62699 14.4319C6.55441 14.1492 6.18381 13.3637 5.86714 12.9605C5.83432 12.9187 5.83655 12.8584 5.87461 12.8214L8.97331 9.8039C9.0365 9.74236 9.14261 9.78714 9.14261 9.87535V12.0466C9.14261 12.0736 9.13174 12.0993 9.11246 12.1181L7.62309 13.5684C7.55897 13.6309 7.60317 13.7396 7.69266 13.7396H9.75382C9.8089 13.7396 9.85355 13.695 9.85355 13.6399V7.76396C9.85355 7.73705 9.84268 7.71129 9.8234 7.69251L7.82021 5.74182C7.79282 5.71515 7.75313 5.7065 7.71682 5.71845C6.89947 5.98747 5.04012 6.07151 3.67385 4.36685C2.31594 2.67263 3.3521 0.841469 4.09762 0.0687716C4.13515 0.0298761 4.19689 0.0300469 4.23561 0.0677539L10.4807 6.14922C10.4994 6.16735 10.5243 6.1775 10.5503 6.1775H11.7226C11.7776 6.1775 11.8223 6.22215 11.8223 6.27723V7.46677C11.8223 7.49368 11.8332 7.51945 11.8524 7.53822L16.7352 12.293C16.7889 12.3453 16.7679 12.4368 16.6996 12.468C16.5658 12.5291 16.413 12.6242 16.252 12.781C16.0694 12.9589 15.9682 13.0919 15.8786 13.2481C15.8452 13.3063 15.7659 13.3195 15.7178 13.2727L11.9916 9.64414C11.9284 9.58259 11.8223 9.62737 11.8223 9.71559V13.6399C11.8223 13.695 11.8669 13.7396 11.922 13.7396H15.4324C15.507 13.7396 15.555 13.8184 15.5217 13.8852C15.3846 14.1606 15.2593 14.4591 15.2129 14.9112C15.1772 15.2589 15.2081 15.7919 15.3012 16.3374C15.3117 16.3989 15.2646 16.4556 15.2022 16.4556Z" fill="#16FFE5"/>
</svg>
