<svg width="23" height="24" viewBox="0 0 23 24" fill="none" xmlns="http://www.w3.org/2000/svg">
<path d="M18.6929 2.76836C19.2603 3.3357 19.2603 4.25241 18.6929 4.81975L15.103 8.40967L13.0516 6.35829L16.6415 2.76836C17.2089 2.20102 18.1256 2.20102 18.6929 2.76836ZM12.5388 0.716973C13.1061 0.149636 14.0228 0.149636 14.5901 0.716973C15.1575 1.28431 15.1575 2.20102 14.5901 2.76836L12.0259 5.33259L9.97453 3.28121L12.5388 0.716973ZM18.6929 6.87113C19.2603 6.3038 20.177 6.3038 20.7443 6.87113C21.3116 7.43847 21.3116 8.35518 20.7443 8.92252L17.6672 11.9996C17.0999 12.5669 16.1832 12.5669 15.6158 11.9996C15.0485 11.4323 15.0485 10.5155 15.6158 9.94821L18.6929 6.87113ZM19.7186 11.9996C20.286 11.4323 21.2027 11.4323 21.77 11.9996C22.3373 12.5669 22.3373 13.4836 21.77 14.051L19.7186 16.1024C19.1513 16.6697 18.2346 16.6697 17.6672 16.1024C17.0999 15.535 17.0999 14.6183 17.6672 14.051L19.7186 11.9996ZM13.8209 11.7432L13.8401 11.7239C13.9683 12.1983 14.2151 12.6503 14.5901 13.0253C15.0132 13.4484 15.5325 13.7112 16.0774 13.8202C15.5581 14.8972 15.7473 16.2338 16.6415 17.1281C17.0166 17.5031 17.4653 17.7531 17.9429 17.8781L17.6672 18.1538C15.9909 19.8301 13.6959 20.5161 11.5131 20.2051L8.43599 23.2822C7.86865 23.8496 6.95194 23.8496 6.3846 23.2822L1.25613 18.1538C0.688796 17.5864 0.688796 16.6697 1.25613 16.1024L3.76908 13.5894C3.46778 12.7817 3.30752 11.9227 3.30752 11.0444L3.30752 10.3008C3.30752 8.76225 3.91973 7.28462 5.00632 6.19802L5.87175 5.33259C7.00322 4.20113 8.84306 4.20112 9.97453 5.33259L12.7952 8.15325C13.5036 8.86162 13.5036 10.0091 12.7952 10.7175C12.0868 11.4259 10.9393 11.4259 10.2309 10.7175L8.43599 8.92252C8.15392 8.64045 7.69236 8.64045 7.41029 8.92252C7.12823 9.20459 7.12823 9.66615 7.41029 9.94821L9.20526 11.7432C10.481 13.0189 12.5452 13.0189 13.8209 11.7432Z" fill="#16FFE5"/>
</svg>
