<svg width="25" height="17" viewBox="0 0 25 17" fill="none" xmlns="http://www.w3.org/2000/svg">
<path d="M8.56713 13.9477C9.16214 13.7098 9.28114 13.0255 9.10267 12.4899L8.56713 11.2403C8.22996 10.556 7.51163 8.83187 7.64487 7.4321C7.7637 6.18363 9.0311 5.39053 9.8444 5.1419C9.84578 5.14148 9.84713 5.14117 9.84855 5.14096L9.87507 5.13692C10.6523 5.0187 11.5644 4.87993 13.0299 5.79582C14.2199 6.53961 14.441 7.07515 14.5472 7.81894C14.6662 8.65199 14.577 9.60405 14.4878 10.0503C14.2692 11.1439 12.4348 13.0255 12.1373 13.442C11.7321 14.0093 11.572 15.3164 11.81 15.7627C11.9159 15.9612 12.2364 16.4242 12.6728 16.5065C13.2175 16.6092 13.7894 16.3324 14.0117 16.2089C14.5472 15.9114 15.0828 14.6915 15.3506 14.3345C16.2133 13.1842 16.838 13.0851 17.2546 13.0255C17.4977 12.9908 18.2067 12.8554 18.6828 12.7874C19.0992 12.728 20.2822 12.1801 20.5868 12.0139C21.2414 11.6569 21.9555 10.675 22.491 10.0503C22.848 9.5743 23.5025 9.39579 23.8001 9.0982C24.4255 8.47278 24.4695 7.78919 24.4844 7.64036C24.5438 7.04539 24.4248 4.6355 24.276 3.98096C24.1763 3.54193 23.5918 2.1066 23.1752 1.15454C22.9481 0.635317 22.6694 0.499977 22.4612 0.5C22.2578 0.500023 21.6877 0.648667 21.4497 0.70817L16.726 1.86684C16.7214 1.86795 16.7173 1.86811 16.7128 1.86707C15.5411 1.59711 10.649 0.58913 10.2332 0.559432C9.81343 0.529449 9.25478 0.85695 8.83494 1.30321C7.41676 2.81063 4.81841 5.31972 4.55078 5.67674C4.32717 5.97504 4.04481 6.42053 4.34238 7.25356L6.96054 13.3527C7.28777 13.9477 8.01665 14.1678 8.56713 13.9477Z" fill="#16FFE5"/>
<path d="M7.36042 1.40916L4.33231 4.43727C4.31073 4.45885 4.27451 4.43835 4.28265 4.40894C4.5334 3.50326 5.04292 1.82255 5.2944 1.57106C5.547 1.31847 6.72455 1.3225 7.34153 1.35872C7.36705 1.36022 7.37849 1.39109 7.36042 1.40916Z" fill="#16FFE5"/>
<path d="M4.92312 10.9982L3.51515 7.64723C3.4934 7.59547 3.41864 7.59986 3.40311 7.65382L2.32215 11.4088C2.32021 11.4155 2.31945 11.4222 2.31998 11.4292C2.34131 11.7117 2.43371 12.3223 2.706 12.4899C3.09071 12.7267 3.6226 12.4925 3.83321 12.3143C3.83551 12.3124 3.83755 12.3103 3.83951 12.308L4.91336 11.06C4.92808 11.0429 4.93186 11.019 4.92312 10.9982Z" fill="#16FFE5"/>
<path d="M3.50684 3.62208L1.49567 10.9381C1.48983 10.9593 1.47283 10.9758 1.45094 10.9784C1.34015 10.9916 1.10712 10.9808 0.831632 10.8536C0.522213 10.7108 0.484528 10.3974 0.504362 10.2586C0.782046 8.75116 1.42072 5.56971 1.75394 4.90327C2.0622 4.28675 2.9374 3.77547 3.42795 3.55315C3.47302 3.53273 3.51996 3.57437 3.50684 3.62208Z" fill="#16FFE5"/>
</svg>
