<svg width="22" height="20" viewBox="0 0 22 20" fill="none" xmlns="http://www.w3.org/2000/svg">
<path d="M5.19865 0.44043L17.0987 12.3404L19.2187 10.2204L20.6287 11.6304L18.1587 14.1004L21.3387 17.2804C21.7287 17.6704 21.7287 18.3004 21.3387 18.6904L20.6287 19.4004C20.5361 19.4931 20.4263 19.5667 20.3053 19.6169C20.1843 19.667 20.0546 19.6929 19.9237 19.6929C19.7927 19.6929 19.663 19.667 19.542 19.6169C19.4211 19.5667 19.3112 19.4931 19.2187 19.4004L15.9987 16.2304L13.5587 18.7004L12.1487 17.2904L14.2687 15.1704L2.36865 3.27043V0.44043H5.19865ZM14.8887 8.00043L19.6287 3.26043V0.44043H16.7987L12.0587 5.18043L14.8887 8.00043ZM9.93865 13.0004L7.10865 10.1304L4.89865 12.3404L2.77866 10.2204L1.36865 11.6304L3.83865 14.1004L0.658655 17.2904C0.565951 17.3829 0.492404 17.4928 0.442222 17.6138C0.392041 17.7348 0.366211 17.8645 0.366211 17.9954C0.366211 18.1264 0.392041 18.2561 0.442222 18.3771C0.492404 18.498 0.565951 18.6079 0.658655 18.7004L1.36865 19.4104C1.75865 19.8004 2.38866 19.8004 2.77866 19.4104L5.99865 16.2304L8.43865 18.7004L9.84866 17.2904L7.72865 15.1704L9.93865 13.0004Z" fill="#16FFE5"/>
</svg>
