<svg width="24" height="24" viewBox="0 0 24 24" fill="none" xmlns="http://www.w3.org/2000/svg">
<path fill-rule="evenodd" clip-rule="evenodd" d="M19.701 4.40823L12.701 1.63446C12.2484 1.45518 11.7496 1.45518 11.297 1.63446L4.29702 4.40823C3.91572 4.55926 3.58713 4.82969 3.35518 5.18336C3.12323 5.53702 2.99897 5.95708 2.99902 6.38738V12.0543C2.99899 13.8205 3.46439 15.5517 4.34309 17.0541C5.22179 18.5565 6.47906 19.7707 7.97402 20.5605L11.328 22.3326C11.5364 22.4427 11.7661 22.5 11.999 22.5C12.232 22.5 12.4617 22.4427 12.67 22.3326L16.024 20.5605C17.519 19.7707 18.7763 18.5565 19.655 17.0541C20.5337 15.5517 20.9991 13.8205 20.999 12.0543V6.38738C20.9991 5.95708 20.8748 5.53702 20.6429 5.18336C20.4109 4.82969 20.0823 4.55926 19.701 4.40823ZM4.99902 6.38738L11.999 3.61361L18.999 6.38738V12.0543C18.9992 13.4282 18.6372 14.775 17.9536 15.9437C17.2701 17.1124 16.292 18.0569 15.129 18.6712L11.999 20.3249L8.86902 18.6691C7.70634 18.0549 6.72846 17.1108 6.04494 15.9425C5.36142 14.7742 4.99925 13.4278 4.99902 12.0543V6.38738Z" fill="#16FFE5"/>
<path fill-rule="evenodd" clip-rule="evenodd" d="M11.999 3.61361L4.99902 6.38738V12.0543C4.99925 13.4278 5.36142 14.7742 6.04494 15.9425C6.72846 17.1108 7.70634 18.0549 8.86902 18.6691L11.999 20.3249L15.129 18.6712C16.292 18.0569 17.2701 17.1124 17.9536 15.9437C18.6372 14.775 18.9992 13.4282 18.999 12.0543V6.38738L11.999 3.61361ZM12.7061 8.07794C12.5186 7.87978 12.2642 7.76845 11.999 7.76845C11.7338 7.76845 11.4795 7.87978 11.2919 8.07794C11.1044 8.2761 10.999 8.54487 10.999 8.82512V10.9385H8.99902C8.73381 10.9385 8.47945 11.0498 8.29192 11.248C8.10438 11.4461 7.99902 11.7149 7.99902 11.9951C7.99902 12.2754 8.10438 12.5442 8.29192 12.7423C8.47945 12.9405 8.73381 13.0518 8.99902 13.0518H10.999V15.1652C10.999 15.4454 11.1044 15.7142 11.2919 15.9123C11.4795 16.1105 11.7338 16.2218 11.999 16.2218C12.2642 16.2218 12.5186 16.1105 12.7061 15.9123C12.8937 15.7142 12.999 15.4454 12.999 15.1652V13.0518H14.999C15.2642 13.0518 15.5186 12.9405 15.7061 12.7423C15.8937 12.5442 15.999 12.2754 15.999 11.9951C15.999 11.7149 15.8937 11.4461 15.7061 11.248C15.5186 11.0498 15.2642 10.9385 14.999 10.9385H12.999V8.82512C12.999 8.54487 12.8937 8.2761 12.7061 8.07794Z" fill="#16FFE5"/>
</svg>
