<svg width="21" height="19" viewBox="0 0 21 19" fill="none" xmlns="http://www.w3.org/2000/svg">
<path d="M3.58558 7.88171V15.4519C3.58558 16.7087 3.58557 17.3376 4.08446 17.8715C4.58224 18.4053 5.1789 18.4984 6.37112 18.6865C7.47334 18.8594 8.87 19 10.5 19C12.13 19 13.5267 18.8594 14.6289 18.6865C15.8211 18.4984 16.4178 18.4053 16.9166 17.8715C17.4144 17.3376 17.4144 16.7087 17.4144 15.4519V7.88076C17.4144 7.23194 17.4144 6.90706 17.5611 6.62112C17.7066 6.33614 17.9811 6.1243 18.5289 5.70157L18.7355 5.54292C19.9089 4.63857 20.4955 4.18544 20.5 3.53092C20.5044 2.87545 19.9833 2.46507 18.9433 1.6424C18.7932 1.52321 18.6383 1.40852 18.4789 1.29852C17.9544 0.939436 17.2144 0.546154 16.6478 0.263068C16.387 0.133828 16.0989 0.0500724 15.8 0.0166457C15.5012 -0.0167809 15.1975 0.000784849 14.9067 0.0683267L14.3622 0.190871C13.9246 0.291418 13.5478 0.530055 13.3078 0.85869C11.9722 2.66076 9.02778 2.66076 7.69223 0.85869C7.4524 0.530312 7.07608 0.291719 6.6389 0.190871L6.09446 0.0683267C5.80343 0.000654265 5.49958 -0.0169788 5.20052 0.0164491C4.90147 0.0498771 4.61314 0.133702 4.35224 0.263068C3.78557 0.546154 3.04558 0.939436 2.52113 1.29852C2.3617 1.40851 2.20679 1.52321 2.05669 1.6424C1.01558 2.46507 0.495584 2.8764 0.500028 3.53092C0.504473 4.18639 1.09114 4.63857 2.26447 5.54292L2.47113 5.70157C3.01891 6.1243 3.29335 6.33614 3.43891 6.62112C3.58558 6.90611 3.58558 7.23194 3.58558 7.88171Z" fill="url(#paint0_linear_1_10251)"/>
<defs>
<linearGradient id="paint0_linear_1_10251" x1="0.5" y1="0" x2="21.3856" y2="17.9707" gradientUnits="userSpaceOnUse">
<stop stop-color="#BDFFF8"/>
<stop offset="0.200094" stop-color="#18FFE5" stop-opacity="0.997405"/>
<stop offset="0.49098" stop-color="#08C4AE"/>
<stop offset="1" stop-color="#059A89"/>
</linearGradient>
</defs>
</svg>
