<svg width="23" height="24" viewBox="0 0 23 24" fill="none" xmlns="http://www.w3.org/2000/svg">
<path d="M18.6949 2.76812C19.2622 3.33545 19.2622 4.25217 18.6949 4.8195L15.1049 8.40943L13.0536 6.35804L16.6435 2.76812C17.2108 2.20078 18.1275 2.20078 18.6949 2.76812ZM12.5407 0.716729C13.108 0.149392 14.0248 0.149392 14.5921 0.716729C15.1594 1.28407 15.1594 2.20078 14.5921 2.76812L12.0279 5.33235L9.97648 3.28096L12.5407 0.716729ZM18.6949 6.87089C19.2622 6.30355 20.1789 6.30355 20.7463 6.87089C21.3136 7.43823 21.3136 8.35494 20.7463 8.92228L17.6692 11.9994C17.1018 12.5667 16.1851 12.5667 15.6178 11.9994C15.0505 11.432 15.0505 10.5153 15.6178 9.94797L18.6949 6.87089ZM19.7206 11.9994C20.2879 11.432 21.2046 11.432 21.772 11.9994C22.3393 12.5667 22.3393 13.4834 21.772 14.0507L19.7206 16.1021C19.1532 16.6695 18.2365 16.6695 17.6692 16.1021C17.1018 15.5348 17.1018 14.6181 17.6692 14.0507L19.7206 11.9994ZM13.8228 11.7429L13.8421 11.7237C13.9703 12.1981 14.2171 12.65 14.5921 13.025C15.0152 13.4481 15.5345 13.711 16.0794 13.82C15.5601 14.8969 15.7492 16.2335 16.6435 17.1278C17.0185 17.5028 17.4672 17.7529 17.9448 17.8779L17.6692 18.1535C15.9928 19.8299 13.6978 20.5158 11.515 20.2049L8.43794 23.282C7.8706 23.8493 6.95389 23.8493 6.38655 23.282L1.25809 18.1535C0.690749 17.5862 0.690749 16.6695 1.25809 16.1021L3.77103 13.5892C3.46974 12.7814 3.30947 11.9224 3.30947 11.0442L3.30947 10.3006C3.30947 8.76201 3.92168 7.28437 5.00828 6.19778L5.87371 5.33235C7.00517 4.20088 8.84501 4.20088 9.97648 5.33235L12.7971 8.15301C13.5055 8.86137 13.5055 10.0089 12.7971 10.7172C12.0888 11.4256 10.9413 11.4256 10.2329 10.7172L8.43794 8.92228C8.15587 8.64021 7.69431 8.64021 7.41225 8.92228C7.13018 9.20434 7.13018 9.6659 7.41225 9.94797L9.20721 11.7429C10.4829 13.0186 12.5471 13.0186 13.8228 11.7429Z" fill="#A4A4A4"/>
</svg>
