<svg width="24" height="17" viewBox="0 0 24 17" fill="none" xmlns="http://www.w3.org/2000/svg">
<path d="M8.06713 13.9477C8.66214 13.7098 8.78114 13.0255 8.60267 12.4899L8.06713 11.2403C7.72996 10.556 7.01163 8.83187 7.14487 7.4321C7.2637 6.18363 8.5311 5.39053 9.3444 5.1419C9.34578 5.14148 9.34713 5.14117 9.34855 5.14096L9.37507 5.13692C10.1523 5.0187 11.0645 4.87993 12.5299 5.79582C13.7199 6.53961 13.941 7.07515 14.0472 7.81894C14.1662 8.65199 14.077 9.60405 13.9878 10.0503C13.7692 11.1439 11.9348 13.0255 11.6373 13.442C11.2321 14.0093 11.072 15.3164 11.31 15.7627C11.4159 15.9612 11.7364 16.4242 12.1728 16.5065C12.7175 16.6092 13.2894 16.3324 13.5117 16.2089C14.0472 15.9114 14.5828 14.6915 14.8506 14.3345C15.7133 13.1842 16.338 13.0851 16.7546 13.0255C16.9977 12.9908 17.7067 12.8554 18.1828 12.7874C18.5992 12.728 19.7822 12.1801 20.0868 12.0139C20.7414 11.6569 21.4555 10.675 21.991 10.0503C22.348 9.5743 23.0025 9.39579 23.3001 9.0982C23.9255 8.47278 23.9695 7.78919 23.9844 7.64036C24.0438 7.0454 23.9248 4.6355 23.776 3.98096C23.6763 3.54193 23.0918 2.1066 22.6752 1.15454C22.4481 0.635317 22.1694 0.499977 21.9612 0.5C21.7578 0.500023 21.1877 0.648667 20.9497 0.70817L16.226 1.86684C16.2214 1.86795 16.2173 1.86811 16.2128 1.86707C15.0411 1.59711 10.149 0.58913 9.7332 0.559432C9.31343 0.529449 8.75478 0.85695 8.33494 1.30321C6.91676 2.81063 4.31841 5.31972 4.05078 5.67674C3.82717 5.97505 3.54481 6.42053 3.84238 7.25356L6.46054 13.3527C6.78777 13.9477 7.51665 14.1678 8.06713 13.9477Z" fill="#A4A4A4"/>
<path d="M6.86042 1.40916L3.83231 4.43727C3.81073 4.45885 3.77451 4.43835 3.78265 4.40894C4.0334 3.50326 4.54292 1.82255 4.7944 1.57106C5.047 1.31847 6.22455 1.3225 6.84153 1.35872C6.86705 1.36022 6.87849 1.39109 6.86042 1.40916Z" fill="#A4A4A4"/>
<path d="M4.42312 10.9982L3.01515 7.64723C2.9934 7.59547 2.91864 7.59986 2.90311 7.65382L1.82215 11.4088C1.82021 11.4155 1.81945 11.4222 1.81998 11.4292C1.84131 11.7117 1.93371 12.3223 2.206 12.4899C2.59071 12.7267 3.1226 12.4925 3.33321 12.3143C3.33551 12.3124 3.33755 12.3103 3.33951 12.308L4.41336 11.06C4.42808 11.0429 4.43186 11.019 4.42312 10.9982Z" fill="#A4A4A4"/>
<path d="M3.00684 3.62208L0.995667 10.9381C0.989825 10.9593 0.972827 10.9758 0.950941 10.9784C0.840148 10.9916 0.607115 10.9808 0.331632 10.8536C0.0222135 10.7108 -0.0154721 10.3974 0.00436241 10.2586C0.282046 8.75116 0.920718 5.56971 1.25394 4.90327C1.5622 4.28675 2.4374 3.77547 2.92795 3.55316C2.97302 3.53273 3.01996 3.57437 3.00684 3.62208Z" fill="#A4A4A4"/>
</svg>
