<svg width="18" height="22" viewBox="0 0 18 22" fill="none" xmlns="http://www.w3.org/2000/svg">
<path fill-rule="evenodd" clip-rule="evenodd" d="M16.702 3.40823L9.702 0.634461C9.24938 0.45518 8.75062 0.45518 8.298 0.634461L1.298 3.40823C0.916693 3.55926 0.588102 3.82969 0.356153 4.18336C0.124204 4.53702 -5.06984e-05 4.95708 1.55178e-08 5.38738V11.0543C-3.60317e-05 12.8205 0.465371 14.5517 1.34407 16.0541C2.22277 17.5565 3.48004 18.7707 4.975 19.5605L8.329 21.3326C8.53733 21.4427 8.76706 21.5 9 21.5C9.23294 21.5 9.46267 21.4427 9.671 21.3326L13.025 19.5605C14.52 18.7707 15.7772 17.5565 16.6559 16.0541C17.5346 14.5517 18 12.8205 18 11.0543V5.38738C18.0001 4.95708 17.8758 4.53702 17.6438 4.18336C17.4119 3.82969 17.0833 3.55926 16.702 3.40823ZM2 5.38738L9 2.61361L16 5.38738V11.0543C16.0001 12.4282 15.6382 13.775 14.9546 14.9437C14.2711 16.1124 13.293 17.0569 12.13 17.6712L9 19.3249L5.87 17.6691C4.70732 17.0549 3.72944 16.1108 3.04592 14.9425C2.36239 13.7742 2.00023 12.4278 2 11.0543V5.38738Z" fill="#A4A4A4"/>
<path fill-rule="evenodd" clip-rule="evenodd" d="M9 2.61361L2 5.38738V11.0543C2.00023 12.4278 2.36239 13.7742 3.04592 14.9425C3.72944 16.1108 4.70732 17.0549 5.87 17.6691L9 19.3249L12.13 17.6712C13.293 17.0569 14.2711 16.1124 14.9546 14.9437C15.6382 13.775 16.0001 12.4282 16 11.0543V5.38738L9 2.61361ZM9.70711 7.07794C9.51957 6.87978 9.26522 6.76845 9 6.76845C8.73478 6.76845 8.48043 6.87978 8.29289 7.07794C8.10536 7.2761 8 7.54487 8 7.82512V9.93847H6C5.73478 9.93847 5.48043 10.0498 5.29289 10.248C5.10536 10.4461 5 10.7149 5 10.9951C5 11.2754 5.10536 11.5442 5.29289 11.7423C5.48043 11.9405 5.73478 12.0518 6 12.0518H8V14.1652C8 14.4454 8.10536 14.7142 8.29289 14.9123C8.48043 15.1105 8.73478 15.2218 9 15.2218C9.26522 15.2218 9.51957 15.1105 9.70711 14.9123C9.89464 14.7142 10 14.4454 10 14.1652V12.0518H12C12.2652 12.0518 12.5196 11.9405 12.7071 11.7423C12.8946 11.5442 13 11.2754 13 10.9951C13 10.7149 12.8946 10.4461 12.7071 10.248C12.5196 10.0498 12.2652 9.93847 12 9.93847H10V7.82512C10 7.54487 9.89464 7.2761 9.70711 7.07794Z" fill="#A4A4A4"/>
</svg>
