<svg width="24" height="24" viewBox="0 0 24 24" fill="none" xmlns="http://www.w3.org/2000/svg">
<ellipse cx="4.125" cy="18.4439" rx="2.625" ry="2.55621" fill="#A4A4A4"/>
<ellipse cx="19.875" cy="18.4439" rx="2.625" ry="2.55621" fill="#A4A4A4"/>
<path d="M16.2003 19.4556H7.79914C7.73694 19.4556 7.69 19.3991 7.69975 19.3377C7.83419 18.49 7.72962 17.8393 7.62503 17.4319C7.55246 17.1492 7.18186 16.3637 6.86519 15.9605C6.83237 15.9187 6.8346 15.8584 6.87266 15.8214L9.97135 12.8039C10.0346 12.7424 10.1407 12.7871 10.1407 12.8753V15.0466C10.1407 15.0736 10.1298 15.0993 10.1105 15.1181L8.62113 16.5684C8.55702 16.6309 8.60122 16.7396 8.69071 16.7396H10.7519C10.8069 16.7396 10.8516 16.695 10.8516 16.6399V10.764C10.8516 10.7371 10.8407 10.7113 10.8214 10.6925L8.81825 8.74182C8.79087 8.71515 8.75118 8.7065 8.71487 8.71845C7.89751 8.98747 6.03817 9.07151 4.67189 7.36685C3.31399 5.67263 4.35015 3.84147 5.09567 3.06877C5.1332 3.02988 5.19494 3.03005 5.23366 3.06775L11.4788 9.14922C11.4974 9.16735 11.5224 9.1775 11.5484 9.1775H12.7206C12.7757 9.1775 12.8203 9.22215 12.8203 9.27723V10.4668C12.8203 10.4937 12.8312 10.5194 12.8505 10.5382L17.7332 15.293C17.787 15.3453 17.7659 15.4368 17.6977 15.468C17.5639 15.5291 17.4111 15.6242 17.25 15.781C17.0674 15.9589 16.9662 16.0919 16.8766 16.2481C16.8433 16.3063 16.7639 16.3195 16.7159 16.2727L12.9896 12.6441C12.9264 12.5826 12.8203 12.6274 12.8203 12.7156V16.6399C12.8203 16.695 12.865 16.7396 12.9201 16.7396H16.4305C16.5051 16.7396 16.553 16.8184 16.5198 16.8852C16.3826 17.1606 16.2574 17.4591 16.211 17.9112C16.1753 18.2589 16.2062 18.7919 16.2992 19.3374C16.3097 19.3989 16.2627 19.4556 16.2003 19.4556Z" fill="#A4A4A4"/>
</svg>
