<svg width="22" height="20" viewBox="0 0 22 20" fill="none" xmlns="http://www.w3.org/2000/svg">
<path d="M5.19963 0.44043L17.0996 12.3404L19.2196 10.2204L20.6296 11.6304L18.1596 14.1004L21.3396 17.2804C21.7296 17.6704 21.7296 18.3004 21.3396 18.6904L20.6296 19.4004C20.5371 19.4931 20.4272 19.5667 20.3063 19.6169C20.1853 19.667 20.0556 19.6929 19.9246 19.6929C19.7937 19.6929 19.664 19.667 19.543 19.6169C19.422 19.5667 19.3121 19.4931 19.2196 19.4004L15.9996 16.2304L13.5596 18.7004L12.1496 17.2904L14.2696 15.1704L2.36963 3.27043V0.44043H5.19963ZM14.8896 8.00043L19.6296 3.26043V0.44043H16.7996L12.0596 5.18043L14.8896 8.00043ZM9.93963 13.0004L7.10963 10.1304L4.89963 12.3404L2.77963 10.2204L1.36963 11.6304L3.83963 14.1004L0.659631 17.2904C0.566928 17.3829 0.49338 17.4928 0.443199 17.6138C0.393017 17.7348 0.367188 17.8645 0.367188 17.9954C0.367188 18.1264 0.393017 18.2561 0.443199 18.3771C0.49338 18.498 0.566928 18.6079 0.659631 18.7004L1.36963 19.4104C1.75963 19.8004 2.38963 19.8004 2.77963 19.4104L5.99963 16.2304L8.43963 18.7004L9.84963 17.2904L7.72963 15.1704L9.93963 13.0004Z" fill="#A4A4A4"/>
</svg>
